<svg id="svg" version="1.1" xmlns="http://www.w3.org/2000/svg" xmlns:xlink="http://www.w3.org/1999/xlink" width="400" height="400" viewBox="0, 0, 400,400"><g id="svgg"><path id="path0" d="M225.600 25.223 C 222.643 25.633,219.032 26.267,216.600 26.803 C 215.500 27.046,214.013 27.344,213.296 27.466 C 212.579 27.588,211.894 27.849,211.773 28.044 C 211.652 28.240,211.023 28.400,210.376 28.400 C 209.729 28.400,209.200 28.580,209.200 28.800 C 209.200 29.020,208.660 29.200,208.000 29.200 C 207.340 29.200,206.800 29.380,206.800 29.600 C 206.800 29.820,206.260 30.000,205.600 30.000 C 204.940 30.000,204.400 30.180,204.400 30.400 C 204.400 30.620,203.860 30.800,203.200 30.800 C 202.540 30.800,202.000 30.980,202.000 31.200 C 202.000 31.420,201.651 31.600,201.224 31.600 C 200.797 31.600,200.336 31.780,200.200 32.000 C 200.064 32.220,199.513 32.400,198.976 32.400 C 198.439 32.400,198.000 32.580,198.000 32.800 C 198.000 33.020,197.640 33.200,197.200 33.200 C 196.760 33.200,196.400 33.380,196.400 33.600 C 196.400 33.820,196.040 34.000,195.600 34.000 C 195.160 34.000,194.800 34.180,194.800 34.400 C 194.800 34.620,194.440 34.800,194.000 34.800 C 193.560 34.800,193.200 34.980,193.200 35.200 C 193.200 35.420,192.930 35.600,192.600 35.600 C 192.270 35.600,192.000 35.780,192.000 36.000 C 192.000 36.220,191.640 36.400,191.200 36.400 C 190.760 36.400,190.400 36.580,190.400 36.800 C 190.400 37.020,190.040 37.200,189.600 37.200 C 189.160 37.200,188.800 37.380,188.800 37.600 C 188.800 37.820,188.440 38.000,188.000 38.000 C 187.560 38.000,187.200 38.180,187.200 38.400 C 187.200 38.620,186.880 38.800,186.488 38.800 C 186.097 38.800,185.517 39.160,185.200 39.600 C 184.883 40.040,184.303 40.400,183.912 40.400 C 183.520 40.400,183.200 40.559,183.200 40.754 C 183.200 40.949,182.615 41.412,181.900 41.784 C 179.608 42.973,178.822 43.456,178.071 44.136 C 177.667 44.501,177.216 44.800,177.069 44.800 C 176.922 44.800,176.059 45.520,175.152 46.400 C 174.245 47.280,173.334 48.000,173.126 48.000 C 172.918 48.000,171.905 48.860,170.874 49.911 C 169.843 50.962,168.370 52.260,167.600 52.795 C 166.043 53.878,163.838 56.100,160.456 60.000 C 159.215 61.430,157.885 62.891,157.500 63.247 C 157.115 63.603,156.800 64.071,156.800 64.288 C 156.800 64.504,156.260 65.246,155.600 65.937 C 154.940 66.628,154.400 67.392,154.400 67.636 C 154.400 67.880,153.860 68.583,153.200 69.200 C 152.540 69.817,152.000 70.569,152.000 70.872 C 152.000 71.175,151.640 71.683,151.200 72.000 C 150.760 72.317,150.400 72.814,150.400 73.105 C 150.400 73.396,150.040 74.020,149.600 74.492 C 149.160 74.964,148.576 75.856,148.303 76.475 C 148.029 77.094,147.690 77.600,147.549 77.600 C 147.408 77.600,147.190 77.915,147.064 78.300 C 146.057 81.370,143.557 83.317,142.271 82.031 C 141.711 81.471,130.545 81.442,130.200 82.000 C 130.064 82.220,128.433 82.400,126.576 82.400 C 124.592 82.400,123.200 82.565,123.200 82.800 C 123.200 83.020,122.300 83.200,121.200 83.200 C 120.100 83.200,119.200 83.380,119.200 83.600 C 119.200 83.820,118.480 84.000,117.600 84.000 C 116.720 84.000,116.000 84.180,116.000 84.400 C 116.000 84.620,115.280 84.800,114.400 84.800 C 113.520 84.800,112.800 84.980,112.800 85.200 C 112.800 85.420,112.361 85.600,111.824 85.600 C 111.287 85.600,110.736 85.780,110.600 86.000 C 110.464 86.220,109.913 86.400,109.376 86.400 C 108.839 86.400,108.400 86.580,108.400 86.800 C 108.400 87.020,108.040 87.200,107.600 87.200 C 107.160 87.200,106.800 87.380,106.800 87.600 C 106.800 87.820,106.344 88.000,105.787 88.000 C 104.660 88.000,102.000 90.379,102.000 91.387 C 102.000 91.724,101.820 92.000,101.600 92.000 C 100.785 92.000,101.128 96.323,101.964 96.589 C 102.385 96.722,103.008 97.258,103.349 97.779 C 104.760 99.932,107.862 100.543,110.867 99.259 C 115.484 97.286,120.087 96.015,126.967 94.813 C 154.553 89.995,185.445 107.335,197.097 134.180 C 199.767 140.331,200.303 140.740,206.358 141.243 C 223.447 142.663,237.497 153.120,243.381 168.800 C 245.470 174.369,247.264 175.965,250.885 175.479 C 265.255 173.552,244.828 141.523,224.200 133.639 C 222.880 133.135,221.440 132.584,221.000 132.416 C 218.787 131.571,215.510 130.776,210.625 129.898 L 207.850 129.400 206.225 126.190 C 198.159 110.260,185.498 97.787,170.000 90.505 C 167.470 89.316,165.130 88.209,164.800 88.046 C 164.470 87.883,162.806 87.310,161.102 86.775 C 157.440 85.623,157.515 85.924,159.900 81.915 C 164.594 74.023,172.352 65.183,180.073 58.930 C 186.656 53.598,190.155 51.248,197.005 47.561 C 205.059 43.225,216.049 39.611,226.000 38.027 C 237.225 36.240,249.696 36.526,259.800 38.804 C 271.727 41.493,279.024 44.285,288.947 49.955 C 298.960 55.677,309.973 65.608,317.323 75.542 C 321.094 80.639,325.981 89.173,328.131 94.417 C 328.533 95.398,329.010 96.560,329.191 97.000 C 329.371 97.440,329.736 98.430,330.000 99.200 C 330.264 99.970,330.634 100.960,330.822 101.400 C 331.403 102.765,332.735 107.775,333.985 113.300 C 334.497 115.565,335.108 119.915,335.431 123.600 C 335.953 129.545,337.215 130.984,342.478 131.634 C 349.810 132.539,351.694 132.941,356.000 134.519 C 395.638 149.041,398.053 204.269,359.834 222.220 C 350.388 226.657,345.622 227.200,316.134 227.200 L 296.428 227.200 294.997 228.456 C 294.069 229.271,293.403 230.324,293.101 231.456 C 292.844 232.415,292.491 233.200,292.317 233.200 C 290.893 233.200,293.292 237.687,295.284 238.750 C 296.841 239.581,297.281 239.600,315.438 239.600 C 325.647 239.600,333.995 239.735,333.988 239.900 C 333.981 240.065,333.423 240.650,332.747 241.200 C 332.071 241.750,330.052 243.698,328.259 245.529 C 326.467 247.359,322.570 251.269,319.600 254.218 C 316.630 257.166,313.141 260.640,311.848 261.937 C 310.554 263.234,306.885 266.905,303.695 270.095 C 300.505 273.285,296.636 277.156,295.098 278.698 C 290.481 283.327,281.686 292.118,278.739 295.051 C 277.220 296.563,273.192 300.640,269.789 304.111 L 263.600 310.422 263.600 313.016 C 263.600 314.443,263.825 316.003,264.100 316.483 C 264.892 317.865,266.308 319.200,266.982 319.200 C 267.322 319.200,267.600 319.380,267.600 319.600 C 267.600 319.822,268.667 320.000,270.000 320.000 C 271.333 320.000,272.400 319.822,272.400 319.600 C 272.400 319.380,272.760 319.200,273.200 319.200 C 273.640 319.200,274.000 319.020,274.000 318.800 C 274.000 318.580,274.187 318.400,274.415 318.400 C 274.643 318.400,293.098 300.130,315.427 277.800 C 347.381 245.844,356.234 237.200,357.012 237.200 C 357.555 237.200,358.000 237.020,358.000 236.800 C 358.000 236.580,358.540 236.400,359.200 236.400 C 359.860 236.400,360.400 236.220,360.400 236.000 C 360.400 235.780,360.760 235.600,361.200 235.600 C 361.640 235.600,362.000 235.420,362.000 235.200 C 362.000 234.980,362.540 234.800,363.200 234.800 C 363.860 234.800,364.400 234.620,364.400 234.400 C 364.400 234.180,364.760 234.000,365.200 234.000 C 365.640 234.000,366.000 233.820,366.000 233.600 C 366.000 233.380,366.360 233.200,366.800 233.200 C 367.240 233.200,367.600 233.020,367.600 232.800 C 367.600 232.580,367.960 232.400,368.400 232.400 C 368.840 232.400,369.200 232.220,369.200 232.000 C 369.200 231.780,369.436 231.600,369.725 231.600 C 370.013 231.600,370.636 231.240,371.108 230.800 C 371.580 230.360,372.204 230.000,372.495 230.000 C 372.786 230.000,373.283 229.640,373.600 229.200 C 373.917 228.760,374.319 228.400,374.492 228.400 C 374.665 228.400,375.372 227.860,376.063 227.200 C 376.754 226.540,377.478 226.000,377.674 226.000 C 378.336 226.000,387.200 217.400,387.200 216.757 C 387.200 216.541,387.650 215.914,388.200 215.364 C 388.750 214.814,389.200 214.205,389.200 214.010 C 389.200 213.816,389.447 213.410,389.748 213.109 C 390.505 212.353,391.600 210.170,391.600 209.420 C 391.600 209.079,391.752 208.800,391.937 208.800 C 392.123 208.800,392.708 207.945,393.237 206.900 C 393.767 205.855,394.335 204.940,394.500 204.867 C 394.665 204.793,394.800 204.298,394.800 203.767 C 394.800 203.235,394.980 202.800,395.200 202.800 C 395.420 202.800,395.600 202.440,395.600 202.000 C 395.600 201.560,395.780 201.200,396.000 201.200 C 396.220 201.200,396.400 200.660,396.400 200.000 C 396.400 199.340,396.580 198.800,396.800 198.800 C 397.020 198.800,397.200 198.260,397.200 197.600 C 397.200 196.940,397.380 196.400,397.600 196.400 C 397.820 196.400,398.000 195.680,398.000 194.800 C 398.000 193.920,398.180 193.200,398.400 193.200 C 398.620 193.200,398.800 192.300,398.800 191.200 C 398.800 190.100,398.980 189.200,399.200 189.200 C 399.456 189.200,399.600 185.600,399.600 179.200 C 399.600 172.800,399.456 169.200,399.200 169.200 C 398.980 169.200,398.800 168.300,398.800 167.200 C 398.800 166.100,398.620 165.200,398.400 165.200 C 398.180 165.200,398.000 164.480,398.000 163.600 C 398.000 162.720,397.820 162.000,397.600 162.000 C 397.380 162.000,397.200 161.460,397.200 160.800 C 397.200 160.140,397.020 159.600,396.800 159.600 C 396.580 159.600,396.400 159.150,396.400 158.600 C 396.400 158.050,396.220 157.600,396.000 157.600 C 395.780 157.600,395.600 157.060,395.600 156.400 C 395.600 155.740,395.420 155.200,395.200 155.200 C 394.980 155.200,394.800 154.840,394.800 154.400 C 394.800 153.960,394.620 153.600,394.400 153.600 C 394.180 153.600,394.000 153.240,394.000 152.800 C 394.000 152.360,393.820 152.000,393.600 152.000 C 393.380 152.000,393.200 151.640,393.200 151.200 C 393.200 150.760,393.020 150.400,392.800 150.400 C 392.580 150.400,392.400 150.040,392.400 149.600 C 392.400 149.160,392.253 148.800,392.074 148.800 C 391.895 148.800,391.429 148.125,391.038 147.300 C 389.585 144.229,377.750 131.200,376.414 131.200 C 376.206 131.200,375.586 130.750,375.036 130.200 C 374.486 129.650,373.870 129.200,373.667 129.200 C 373.464 129.200,373.071 128.927,372.794 128.593 C 372.517 128.259,371.640 127.684,370.845 127.316 C 370.050 126.948,368.729 126.231,367.908 125.723 C 367.087 125.215,365.962 124.800,365.408 124.800 C 364.854 124.800,364.400 124.620,364.400 124.400 C 364.400 124.180,364.040 124.000,363.600 124.000 C 363.160 124.000,362.800 123.820,362.800 123.600 C 362.800 123.380,362.440 123.200,362.000 123.200 C 361.560 123.200,361.200 123.020,361.200 122.800 C 361.200 122.580,360.660 122.400,360.000 122.400 C 359.340 122.400,358.800 122.220,358.800 122.000 C 358.800 121.780,358.170 121.600,357.400 121.600 C 356.630 121.600,356.000 121.420,356.000 121.200 C 356.000 120.980,355.280 120.800,354.400 120.800 C 353.520 120.800,352.800 120.620,352.800 120.400 C 352.800 120.178,351.733 120.000,350.400 120.000 C 348.267 120.000,348.000 119.911,348.000 119.200 C 348.000 118.760,347.820 118.400,347.600 118.400 C 347.375 118.400,347.200 117.275,347.200 115.824 C 347.200 114.407,347.020 113.136,346.800 113.000 C 346.580 112.864,346.400 111.953,346.400 110.976 C 346.400 109.999,346.220 109.200,346.000 109.200 C 345.780 109.200,345.600 108.491,345.600 107.624 C 345.600 106.757,345.420 105.936,345.200 105.800 C 344.980 105.664,344.800 104.933,344.800 104.176 C 344.800 103.419,344.620 102.800,344.400 102.800 C 344.180 102.800,344.000 102.080,344.000 101.200 C 344.000 100.320,343.820 99.600,343.600 99.600 C 343.380 99.600,343.200 99.060,343.200 98.400 C 343.200 97.740,343.020 97.200,342.800 97.200 C 342.580 97.200,342.400 96.786,342.400 96.280 C 342.400 95.774,342.252 95.189,342.071 94.980 C 341.890 94.771,341.395 93.475,340.971 92.100 C 340.547 90.725,340.065 89.600,339.900 89.600 C 339.735 89.600,339.600 89.321,339.600 88.981 C 339.600 88.640,339.240 87.616,338.800 86.706 C 338.360 85.795,338.000 84.814,338.000 84.525 C 338.000 84.236,337.820 84.000,337.600 84.000 C 337.380 84.000,337.200 83.655,337.200 83.233 C 337.200 82.812,337.065 82.407,336.900 82.333 C 336.524 82.166,335.225 80.036,334.929 79.100 C 334.807 78.715,334.548 78.400,334.353 78.400 C 334.159 78.400,334.000 78.040,334.000 77.600 C 334.000 77.160,333.820 76.800,333.600 76.800 C 333.380 76.800,333.200 76.570,333.200 76.288 C 333.200 76.007,332.840 75.517,332.400 75.200 C 331.960 74.883,331.600 74.303,331.600 73.912 C 331.600 73.520,331.450 73.200,331.268 73.200 C 331.085 73.200,330.681 72.705,330.370 72.100 C 330.060 71.495,329.489 70.709,329.103 70.353 C 328.716 69.997,328.400 69.501,328.400 69.249 C 328.400 68.998,327.860 68.228,327.200 67.537 C 326.540 66.846,326.000 66.115,326.000 65.912 C 326.000 65.709,325.775 65.317,325.500 65.042 C 325.225 64.766,324.550 63.932,324.000 63.188 C 322.718 61.453,310.885 49.600,310.436 49.600 C 310.249 49.600,309.355 48.880,308.448 48.000 C 307.541 47.120,306.708 46.400,306.596 46.400 C 306.484 46.400,305.828 45.860,305.137 45.200 C 304.446 44.540,303.638 44.000,303.341 44.000 C 303.043 44.000,302.800 43.833,302.800 43.629 C 302.800 43.425,302.080 42.940,301.200 42.552 C 300.320 42.164,299.600 41.701,299.600 41.523 C 299.600 41.345,299.280 41.200,298.888 41.200 C 298.497 41.200,297.917 40.840,297.600 40.400 C 297.283 39.960,296.703 39.600,296.312 39.600 C 295.920 39.600,295.600 39.420,295.600 39.200 C 295.600 38.980,295.280 38.800,294.888 38.800 C 294.497 38.800,293.917 38.440,293.600 38.000 C 293.283 37.560,292.718 37.200,292.345 37.200 C 291.972 37.200,291.607 37.063,291.533 36.896 C 291.322 36.414,284.675 33.193,283.900 33.197 C 283.515 33.199,283.200 33.020,283.200 32.800 C 283.200 32.580,282.840 32.400,282.400 32.400 C 281.960 32.400,281.600 32.220,281.600 32.000 C 281.600 31.780,281.060 31.600,280.400 31.600 C 279.740 31.600,279.200 31.453,279.200 31.272 C 279.200 31.092,278.300 30.700,277.200 30.400 C 276.100 30.100,275.200 29.708,275.200 29.528 C 275.200 29.347,274.671 29.200,274.024 29.200 C 273.377 29.200,272.736 29.020,272.600 28.800 C 272.464 28.580,271.834 28.400,271.200 28.400 C 270.566 28.400,269.936 28.220,269.800 28.000 C 269.664 27.780,268.933 27.600,268.176 27.600 C 267.419 27.600,266.800 27.438,266.800 27.240 C 266.800 27.042,266.035 26.784,265.100 26.667 C 264.165 26.549,262.320 26.253,261.000 26.008 C 259.680 25.763,257.340 25.400,255.800 25.199 C 252.473 24.767,228.756 24.785,225.600 25.223 M239.268 49.997 C 232.030 51.711,234.249 61.600,241.871 61.600 C 249.371 61.600,259.144 63.592,267.000 66.722 C 275.673 70.178,284.761 76.236,290.800 82.590 C 295.227 87.247,301.600 85.052,301.600 78.870 L 301.600 76.658 297.500 72.614 C 287.024 62.280,274.018 55.181,259.400 51.817 C 252.685 50.271,242.135 49.317,239.268 49.997 M309.048 96.014 C 305.119 97.190,303.989 100.717,305.945 105.690 C 307.044 108.483,307.519 109.917,308.976 114.844 C 311.337 122.831,321.841 120.736,320.609 112.524 C 320.365 110.890,318.472 104.576,317.635 102.600 C 317.448 102.160,316.989 101.062,316.614 100.159 C 315.129 96.587,312.303 95.039,309.048 96.014 M84.000 102.400 C 84.000 102.620,83.766 102.800,83.480 102.800 C 82.399 102.800,80.947 103.810,79.400 105.639 C 78.520 106.680,76.945 108.467,75.900 109.611 C 74.855 110.755,74.000 111.868,74.000 112.085 C 74.000 112.302,73.460 112.983,72.800 113.600 C 72.140 114.217,71.600 114.969,71.600 115.272 C 71.600 115.575,71.240 116.083,70.800 116.400 C 70.360 116.717,70.000 117.257,70.000 117.600 C 70.000 117.943,69.640 118.483,69.200 118.800 C 68.760 119.117,68.400 119.697,68.400 120.088 C 68.400 120.480,68.220 120.800,68.000 120.800 C 67.780 120.800,67.600 121.160,67.600 121.600 C 67.600 122.040,67.420 122.400,67.200 122.400 C 66.980 122.400,66.800 122.760,66.800 123.200 C 66.800 123.640,66.654 124.000,66.475 124.000 C 66.296 124.000,65.902 124.630,65.600 125.400 C 65.298 126.170,64.904 126.800,64.725 126.800 C 64.546 126.800,64.400 127.160,64.400 127.600 C 64.400 128.040,64.220 128.400,64.000 128.400 C 63.780 128.400,63.600 128.749,63.600 129.176 C 63.600 129.603,63.420 130.064,63.200 130.200 C 62.980 130.336,62.800 130.887,62.800 131.424 C 62.800 131.961,62.620 132.400,62.400 132.400 C 62.180 132.400,62.000 132.839,62.000 133.376 C 62.000 133.913,61.820 134.464,61.600 134.600 C 61.380 134.736,61.200 135.377,61.200 136.024 C 61.200 136.671,61.020 137.200,60.800 137.200 C 60.580 137.200,60.400 137.729,60.400 138.376 C 60.400 139.023,60.220 139.664,60.000 139.800 C 59.780 139.936,59.600 140.588,59.600 141.250 C 59.600 141.911,59.426 142.777,59.214 143.174 C 59.001 143.571,58.705 145.360,58.556 147.148 L 58.285 150.400 56.342 150.400 C 55.274 150.400,54.400 150.580,54.400 150.800 C 54.400 151.020,53.860 151.200,53.200 151.200 C 52.540 151.200,52.000 151.380,52.000 151.600 C 52.000 151.820,51.460 152.000,50.800 152.000 C 50.140 152.000,49.600 152.180,49.600 152.400 C 49.600 152.620,49.060 152.800,48.400 152.800 C 47.740 152.800,47.200 152.980,47.200 153.200 C 47.200 153.420,46.840 153.600,46.400 153.600 C 45.960 153.600,45.600 153.780,45.600 154.000 C 45.600 154.220,45.240 154.400,44.800 154.400 C 44.360 154.400,44.000 154.536,44.000 154.702 C 44.000 154.869,43.415 155.260,42.700 155.572 C 41.985 155.884,41.109 156.468,40.753 156.870 C 40.397 157.271,39.889 157.600,39.625 157.600 C 39.360 157.600,38.897 157.825,38.596 158.100 C 38.296 158.375,37.372 159.140,36.544 159.800 C 33.643 162.112,28.400 167.827,28.400 168.678 C 28.400 168.965,28.257 169.200,28.081 169.200 C 27.906 169.200,27.081 170.595,26.249 172.300 C 25.416 174.005,24.569 175.713,24.367 176.095 C 24.165 176.477,24.000 177.062,24.000 177.395 C 24.000 177.728,23.820 178.000,23.600 178.000 C 23.380 178.000,23.200 178.439,23.200 178.976 C 23.200 179.513,23.020 180.064,22.800 180.200 C 22.580 180.336,22.400 181.067,22.400 181.824 C 22.400 182.581,22.220 183.200,22.000 183.200 C 21.780 183.200,21.600 184.100,21.600 185.200 C 21.600 186.300,21.420 187.200,21.200 187.200 C 20.658 187.200,20.658 201.465,21.200 201.800 C 21.420 201.936,21.600 202.836,21.600 203.800 C 21.600 204.764,21.780 205.664,22.000 205.800 C 22.220 205.936,22.400 206.577,22.400 207.224 C 22.400 207.871,22.580 208.400,22.800 208.400 C 23.020 208.400,23.200 208.850,23.200 209.400 C 23.200 209.950,23.380 210.400,23.600 210.400 C 23.820 210.400,24.000 210.940,24.000 211.600 C 24.000 212.260,24.180 212.800,24.400 212.800 C 24.620 212.800,24.800 213.076,24.800 213.413 C 24.800 214.027,26.686 218.023,27.153 218.400 C 27.290 218.510,27.656 219.095,27.968 219.700 C 28.280 220.305,28.685 220.800,28.868 220.800 C 29.050 220.800,29.200 221.010,29.200 221.268 C 29.200 221.895,38.281 230.800,38.920 230.800 C 39.197 230.800,39.683 231.160,40.000 231.600 C 40.317 232.040,40.814 232.400,41.105 232.400 C 41.396 232.400,41.994 232.736,42.434 233.146 C 42.875 233.557,44.082 234.296,45.118 234.790 C 46.153 235.284,47.313 235.848,47.695 236.044 C 48.077 236.240,48.662 236.400,48.995 236.400 C 49.328 236.400,49.600 236.580,49.600 236.800 C 49.600 237.020,50.140 237.200,50.800 237.200 C 51.460 237.200,52.000 237.380,52.000 237.600 C 52.000 237.820,52.720 238.000,53.600 238.000 C 54.480 238.000,55.200 238.163,55.200 238.363 C 55.200 238.798,58.261 239.171,64.100 239.447 C 66.465 239.558,68.398 239.774,68.395 239.925 C 68.392 240.076,53.002 255.572,34.195 274.361 L 0.000 308.522 -0.000 313.000 C -0.000 317.712,0.515 319.200,2.147 319.200 C 2.506 319.200,2.800 319.380,2.800 319.600 C 2.800 320.173,6.648 320.095,7.674 319.500 C 8.148 319.225,11.138 316.457,14.317 313.348 C 20.542 307.261,20.801 307.005,30.702 297.102 C 34.332 293.472,37.999 289.804,38.852 288.951 C 39.705 288.098,43.395 284.408,47.052 280.751 C 50.709 277.094,54.402 273.404,55.257 272.551 C 56.113 271.698,59.776 268.030,63.398 264.400 C 67.020 260.770,70.891 256.900,72.000 255.800 C 73.109 254.700,76.770 251.010,80.136 247.600 C 83.502 244.190,86.739 240.995,87.331 240.500 C 88.352 239.645,112.800 238.983,112.800 239.810 C 112.800 239.925,103.710 249.110,92.600 260.222 C 81.490 271.333,72.400 280.599,72.400 280.812 C 72.400 281.025,72.220 281.200,72.000 281.200 C 71.780 281.200,71.600 281.470,71.600 281.800 C 71.600 282.130,71.420 282.400,71.200 282.400 C 70.980 282.400,70.800 282.760,70.800 283.200 C 70.800 283.640,70.620 284.000,70.400 284.000 C 70.180 284.000,70.000 284.540,70.000 285.200 C 70.000 285.860,69.820 286.400,69.600 286.400 C 69.365 286.400,69.200 287.800,69.200 289.800 C 69.200 291.800,69.365 293.200,69.600 293.200 C 69.820 293.200,70.000 293.740,70.000 294.400 C 70.000 295.060,70.180 295.600,70.400 295.600 C 70.620 295.600,70.800 295.960,70.800 296.400 C 70.800 296.840,70.950 297.200,71.132 297.200 C 71.315 297.200,71.720 297.695,72.032 298.300 C 72.758 299.706,73.416 300.400,74.025 300.400 C 74.289 300.400,74.799 300.715,75.157 301.100 C 76.059 302.069,77.440 302.800,78.371 302.800 C 78.801 302.800,79.264 302.980,79.400 303.200 C 79.557 303.454,84.604 303.600,93.224 303.600 C 100.691 303.600,106.800 303.709,106.800 303.842 C 106.800 303.975,104.795 306.000,102.345 308.342 C 99.895 310.684,96.790 313.762,95.445 315.182 C 94.100 316.602,90.242 320.472,86.871 323.782 C 83.500 327.092,79.630 330.954,78.271 332.364 C 74.741 336.026,68.167 342.587,65.166 345.442 C 60.729 349.663,56.000 354.810,56.000 355.417 C 56.000 355.738,55.820 356.000,55.600 356.000 C 55.380 356.000,55.200 356.360,55.200 356.800 C 55.200 357.240,55.020 357.600,54.800 357.600 C 54.580 357.600,54.400 357.960,54.400 358.400 C 54.400 358.840,54.220 359.200,54.000 359.200 C 53.759 359.200,53.600 360.867,53.600 363.400 C 53.600 365.933,53.759 367.600,54.000 367.600 C 54.220 367.600,54.400 367.960,54.400 368.400 C 54.400 368.840,54.580 369.200,54.800 369.200 C 55.020 369.200,55.200 369.560,55.200 370.000 C 55.200 370.440,55.380 370.800,55.600 370.800 C 55.820 370.800,56.000 371.070,56.000 371.400 C 56.000 371.730,56.180 372.000,56.400 372.000 C 56.620 372.000,56.804 372.225,56.809 372.500 C 56.819 373.125,59.705 375.200,60.564 375.200 C 60.914 375.200,61.200 375.380,61.200 375.600 C 61.200 375.820,61.650 376.000,62.200 376.000 C 62.750 376.000,63.200 376.180,63.200 376.400 C 63.200 376.639,64.733 376.800,67.000 376.800 C 69.267 376.800,70.800 376.639,70.800 376.400 C 70.800 376.180,71.205 375.987,71.700 375.971 C 72.195 375.955,73.140 375.603,73.800 375.189 C 74.460 374.774,75.585 374.137,76.300 373.772 C 77.015 373.407,77.600 372.949,77.600 372.754 C 77.600 372.559,77.920 372.400,78.312 372.400 C 78.703 372.400,79.283 372.040,79.600 371.600 C 79.917 371.160,80.457 370.800,80.800 370.800 C 81.143 370.800,81.683 370.440,82.000 370.000 C 82.317 369.560,82.857 369.200,83.200 369.200 C 83.543 369.200,84.083 368.840,84.400 368.400 C 84.717 367.960,85.231 367.600,85.541 367.600 C 85.852 367.600,86.397 367.284,86.753 366.897 C 87.109 366.511,87.895 365.940,88.500 365.630 C 89.105 365.319,89.600 364.915,89.600 364.732 C 89.600 364.550,89.830 364.400,90.112 364.400 C 90.393 364.400,90.883 364.040,91.200 363.600 C 91.517 363.160,92.057 362.800,92.400 362.800 C 92.743 362.800,93.283 362.440,93.600 362.000 C 93.917 361.560,94.457 361.200,94.800 361.200 C 95.143 361.200,95.683 360.840,96.000 360.400 C 96.317 359.960,96.857 359.600,97.200 359.600 C 97.543 359.600,98.083 359.240,98.400 358.800 C 98.717 358.360,99.199 358.000,99.471 358.000 C 99.982 358.000,102.254 356.599,104.000 355.208 C 104.550 354.769,105.225 354.408,105.500 354.405 C 105.775 354.402,106.000 354.220,106.000 354.000 C 106.000 353.780,106.230 353.600,106.512 353.600 C 106.793 353.600,107.283 353.240,107.600 352.800 C 107.917 352.360,108.457 352.000,108.800 352.000 C 109.143 352.000,109.683 351.640,110.000 351.200 C 110.317 350.760,110.857 350.400,111.200 350.400 C 111.543 350.400,112.083 350.040,112.400 349.600 C 112.717 349.160,113.257 348.800,113.600 348.800 C 113.943 348.800,114.483 348.440,114.800 348.000 C 115.117 347.560,115.657 347.200,116.000 347.200 C 116.343 347.200,116.883 346.840,117.200 346.400 C 117.517 345.960,117.973 345.600,118.213 345.600 C 118.453 345.600,118.998 345.285,119.425 344.900 C 119.851 344.515,120.695 343.945,121.300 343.632 C 121.905 343.320,122.400 342.915,122.400 342.732 C 122.400 342.550,122.670 342.400,123.000 342.400 C 123.330 342.400,123.600 342.247,123.600 342.061 C 123.600 341.874,124.320 341.397,125.200 341.000 C 126.080 340.603,126.800 340.148,126.800 339.988 C 126.800 339.828,127.340 339.473,128.000 339.200 C 128.660 338.927,129.200 338.567,129.200 338.400 C 129.200 338.233,129.740 337.873,130.400 337.600 C 131.060 337.327,131.600 336.967,131.600 336.800 C 131.600 336.633,132.140 336.273,132.800 336.000 C 133.460 335.727,134.000 335.375,134.000 335.219 C 134.000 335.063,134.495 334.680,135.100 334.368 C 135.705 334.055,136.549 333.485,136.975 333.100 C 137.402 332.715,137.987 332.400,138.275 332.400 C 138.564 332.400,138.801 332.265,138.802 332.100 C 138.803 331.935,139.792 331.170,141.000 330.400 C 142.208 329.630,143.197 328.865,143.198 328.700 C 143.199 328.535,143.436 328.400,143.725 328.400 C 144.013 328.400,144.598 328.085,145.025 327.700 C 145.451 327.315,146.295 326.745,146.900 326.432 C 147.505 326.120,148.000 325.743,148.000 325.593 C 148.000 325.444,148.720 324.997,149.600 324.600 C 150.480 324.203,151.200 323.726,151.200 323.539 C 151.200 323.353,151.436 323.200,151.725 323.200 C 152.013 323.200,152.598 322.885,153.025 322.500 C 153.451 322.115,154.295 321.545,154.900 321.232 C 155.505 320.920,156.000 320.515,156.000 320.332 C 156.000 320.150,156.230 320.000,156.512 320.000 C 156.793 320.000,157.283 319.640,157.600 319.200 C 157.917 318.760,158.457 318.400,158.800 318.400 C 159.143 318.400,159.683 318.040,160.000 317.600 C 160.317 317.160,160.857 316.800,161.200 316.800 C 161.543 316.800,162.083 316.440,162.400 316.000 C 162.717 315.560,163.257 315.200,163.600 315.200 C 163.943 315.200,164.483 314.840,164.800 314.400 C 165.117 313.960,165.657 313.600,166.000 313.600 C 166.343 313.600,166.883 313.240,167.200 312.800 C 167.517 312.360,168.057 312.000,168.400 312.000 C 168.743 312.000,169.283 311.640,169.600 311.200 C 169.917 310.760,170.431 310.400,170.741 310.400 C 171.052 310.400,171.600 310.085,171.959 309.700 C 172.682 308.924,173.559 308.346,175.500 307.365 C 176.215 307.004,176.800 306.549,176.800 306.354 C 176.800 306.159,177.120 306.000,177.512 306.000 C 177.903 306.000,178.483 305.640,178.800 305.200 C 179.117 304.760,179.657 304.400,180.000 304.400 C 180.343 304.400,180.883 304.040,181.200 303.600 C 181.517 303.160,182.057 302.800,182.400 302.800 C 182.743 302.800,183.283 302.440,183.600 302.000 C 183.917 301.560,184.431 301.200,184.741 301.200 C 185.052 301.200,185.597 300.884,185.953 300.497 C 186.309 300.111,187.095 299.540,187.700 299.230 C 188.305 298.919,188.800 298.515,188.800 298.332 C 188.800 298.150,189.070 298.000,189.400 298.000 C 189.730 298.000,190.000 297.850,190.000 297.668 C 190.000 297.485,190.495 297.081,191.100 296.770 C 191.705 296.460,192.491 295.889,192.847 295.503 C 193.203 295.116,193.748 294.800,194.059 294.800 C 194.369 294.800,194.883 294.440,195.200 294.000 C 195.517 293.560,196.057 293.200,196.400 293.200 C 196.743 293.200,197.283 292.840,197.600 292.400 C 197.917 291.960,198.459 291.600,198.804 291.600 C 199.790 291.600,203.322 287.985,204.275 286.000 C 205.651 283.131,206.568 277.200,205.636 277.200 C 205.396 277.200,205.200 276.772,205.200 276.249 C 205.200 273.903,200.420 267.600,198.642 267.600 C 198.289 267.600,198.000 267.420,198.000 267.200 C 198.000 266.980,197.460 266.800,196.800 266.800 C 196.140 266.800,195.600 266.622,195.600 266.405 C 195.600 266.153,190.125 265.971,180.555 265.905 L 165.509 265.800 178.607 252.700 L 191.704 239.600 210.852 239.600 C 221.383 239.600,230.000 239.679,230.000 239.775 C 230.000 239.871,225.950 244.012,221.000 248.978 C 216.050 253.944,212.000 258.275,212.000 258.603 C 212.000 258.932,211.820 259.200,211.600 259.200 C 210.084 259.200,212.062 266.272,213.700 266.707 C 214.085 266.810,214.400 267.052,214.400 267.247 C 214.400 267.441,214.760 267.600,215.200 267.600 C 215.640 267.600,216.000 267.780,216.000 268.000 C 216.000 268.220,216.900 268.400,218.000 268.400 C 219.100 268.400,220.000 268.220,220.000 268.000 C 220.000 267.780,220.382 267.600,220.848 267.600 C 221.400 267.600,223.408 265.887,226.593 262.700 C 229.286 260.005,233.179 256.154,235.245 254.142 C 241.165 248.376,248.800 240.399,248.800 239.981 C 248.800 239.747,253.840 239.600,261.816 239.600 C 275.894 239.600,277.727 239.329,278.292 237.169 C 278.403 236.746,278.652 236.400,278.847 236.400 C 279.041 236.400,279.200 236.128,279.200 235.795 C 279.200 235.462,279.412 234.850,279.670 234.436 C 280.049 233.830,280.010 233.553,279.470 233.013 C 279.102 232.644,278.800 232.077,278.800 231.752 C 278.800 230.623,277.554 228.761,276.281 227.984 C 275.059 227.239,274.143 227.203,256.500 227.201 C 246.103 227.201,238.000 227.046,238.000 226.848 C 238.000 226.654,239.759 224.719,241.909 222.548 C 251.501 212.862,258.618 197.048,255.495 192.359 C 252.112 187.281,246.729 189.093,244.484 196.066 C 239.145 212.648,227.540 223.002,210.400 226.473 C 206.006 227.363,60.993 227.238,58.000 226.341 C 45.718 222.662,36.347 213.526,34.058 203.000 C 33.819 201.900,33.438 200.155,33.211 199.123 C 30.951 188.807,36.822 174.834,46.200 168.215 C 51.528 164.454,54.827 163.174,61.800 162.160 C 68.823 161.138,69.318 160.608,70.188 153.171 C 71.909 138.467,77.693 126.066,88.022 114.931 C 91.965 110.681,92.818 107.701,90.745 105.420 C 90.555 105.211,90.400 104.639,90.400 104.149 C 90.400 103.550,89.988 103.053,89.139 102.629 C 87.746 101.935,84.000 101.768,84.000 102.400 M174.000 238.902 C 174.000 239.178,167.418 245.973,159.373 254.002 C 151.328 262.031,144.398 269.268,143.973 270.084 C 142.607 272.708,143.273 275.542,145.655 277.241 L 147.000 278.200 170.000 278.400 L 193.000 278.600 193.000 279.551 C 193.000 280.599,196.780 277.993,140.499 315.745 C 124.383 326.555,110.893 335.580,110.520 335.800 C 110.148 336.020,109.485 336.515,109.046 336.900 C 108.608 337.285,108.013 337.600,107.725 337.600 C 107.436 337.600,107.200 337.750,107.200 337.932 C 107.200 338.115,106.708 338.520,106.106 338.832 C 105.504 339.145,104.739 339.617,104.406 339.882 C 99.202 344.025,66.992 364.677,66.355 364.279 C 65.061 363.471,64.881 363.663,97.170 331.336 C 131.250 297.217,129.696 298.969,129.029 295.416 C 128.243 291.223,128.105 291.200,103.199 291.200 C 81.139 291.200,81.164 291.202,81.762 289.319 C 81.888 288.924,93.291 277.305,107.103 263.500 L 132.215 238.400 153.107 238.400 C 169.600 238.400,174.000 238.506,174.000 238.902 M280.000 248.400 C 280.000 248.620,279.606 248.800,279.124 248.800 C 278.537 248.800,276.644 250.411,273.370 253.700 C 270.687 256.395,266.626 260.426,264.346 262.657 C 262.066 264.889,258.189 268.759,255.732 271.257 C 253.275 273.756,249.585 277.448,247.532 279.462 C 245.479 281.476,241.801 285.166,239.358 287.662 C 236.914 290.158,233.809 293.238,232.458 294.507 C 230.728 296.132,230.000 297.109,230.000 297.807 C 230.000 298.353,229.820 298.800,229.600 298.800 C 229.380 298.800,229.200 299.599,229.200 300.576 C 229.200 301.553,229.380 302.464,229.600 302.600 C 229.820 302.736,230.000 303.125,230.000 303.464 C 230.000 305.614,236.774 308.859,237.800 307.200 C 237.936 306.980,238.402 306.800,238.835 306.800 C 240.036 306.800,287.650 259.029,288.300 257.172 C 288.899 255.460,288.960 252.800,288.400 252.800 C 288.180 252.800,288.000 252.512,288.000 252.160 C 288.000 251.808,287.388 250.908,286.640 250.160 C 285.892 249.412,284.992 248.800,284.640 248.800 C 284.288 248.800,284.000 248.620,284.000 248.400 C 284.000 248.180,283.100 248.000,282.000 248.000 C 280.900 248.000,280.000 248.180,280.000 248.400 M27.400 255.608 C 25.279 257.561,12.415 270.412,11.888 271.105 C 11.118 272.117,10.875 277.600,11.600 277.600 C 11.820 277.600,12.000 277.894,12.000 278.253 C 12.000 279.153,14.004 280.799,15.100 280.800 C 15.595 280.800,16.000 280.980,16.000 281.200 C 16.000 281.420,16.799 281.600,17.776 281.600 C 18.753 281.600,19.664 281.420,19.800 281.200 C 19.936 280.980,20.318 280.800,20.650 280.800 C 20.981 280.800,22.139 279.855,23.224 278.700 C 25.473 276.305,24.928 276.850,31.900 270.017 C 35.694 266.298,37.200 264.557,37.200 263.891 C 37.200 263.379,37.416 262.744,37.680 262.480 C 38.714 261.446,36.149 256.000,34.629 256.000 C 34.283 256.000,34.000 255.820,34.000 255.600 C 34.000 255.094,27.950 255.102,27.400 255.608 M319.200 289.200 C 319.200 289.420,318.909 289.600,318.554 289.600 C 316.857 289.600,315.200 292.405,315.200 295.278 C 315.200 296.826,315.373 298.000,315.600 298.000 C 315.820 298.000,316.000 298.278,316.000 298.618 C 316.000 299.418,317.782 301.200,318.582 301.200 C 318.922 301.200,319.200 301.380,319.200 301.600 C 319.200 301.822,320.259 302.000,321.576 302.000 C 322.883 302.000,324.064 301.820,324.200 301.600 C 324.336 301.380,324.715 301.200,325.042 301.200 C 325.369 301.200,326.078 300.758,326.618 300.218 C 327.158 299.678,327.600 298.969,327.600 298.642 C 327.600 298.315,327.780 297.936,328.000 297.800 C 328.220 297.664,328.400 296.483,328.400 295.176 C 328.400 293.859,328.222 292.800,328.000 292.800 C 327.780 292.800,327.600 292.522,327.600 292.182 C 327.600 291.842,327.158 291.122,326.618 290.582 C 326.078 290.042,325.358 289.600,325.018 289.600 C 324.678 289.600,324.400 289.420,324.400 289.200 C 324.400 288.974,323.267 288.800,321.800 288.800 C 320.333 288.800,319.200 288.974,319.200 289.200 M212.824 314.462 C 212.068 314.906,210.808 316.008,210.024 316.912 C 208.626 318.527,203.997 323.154,198.421 328.511 C 196.454 330.401,195.600 331.514,195.600 332.187 C 195.600 332.718,195.420 333.264,195.200 333.400 C 194.980 333.536,194.800 334.256,194.800 335.000 C 194.800 335.744,194.980 336.464,195.200 336.600 C 195.420 336.736,195.600 337.214,195.600 337.663 C 195.600 340.475,201.072 342.500,204.641 341.009 C 206.020 340.433,221.623 325.101,222.700 323.264 C 223.296 322.248,223.371 318.153,222.800 317.800 C 222.580 317.664,222.400 317.285,222.400 316.958 C 222.400 316.177,220.607 314.400,219.818 314.400 C 219.478 314.400,219.200 314.220,219.200 314.000 C 219.200 313.240,214.305 313.595,212.824 314.462 M53.834 314.924 C 52.613 315.682,38.000 330.318,38.000 330.781 C 38.000 331.012,37.820 331.200,37.600 331.200 C 37.369 331.200,37.200 332.467,37.200 334.200 C 37.200 335.933,37.369 337.200,37.600 337.200 C 37.820 337.200,38.000 337.483,38.000 337.829 C 38.000 340.673,44.397 341.989,47.582 339.800 C 49.450 338.516,61.943 325.500,62.700 324.050 C 63.613 322.300,63.932 319.200,63.200 319.200 C 62.980 319.200,62.800 318.795,62.800 318.300 C 62.799 317.204,61.153 315.200,60.253 315.200 C 59.894 315.200,59.600 315.020,59.600 314.800 C 59.600 314.238,54.770 314.341,53.834 314.924 M248.800 328.705 C 248.800 328.873,248.395 329.188,247.900 329.405 C 247.405 329.622,246.822 330.205,246.605 330.700 C 246.388 331.195,246.073 331.600,245.905 331.600 C 245.054 331.600,245.602 338.201,246.544 339.297 C 251.219 344.732,261.537 339.188,258.461 332.895 C 256.568 329.023,255.731 328.470,251.700 328.429 C 250.105 328.413,248.800 328.537,248.800 328.705 M26.914 342.280 C 24.530 342.742,23.200 345.019,23.200 348.640 C 23.200 350.613,23.365 352.000,23.600 352.000 C 23.820 352.000,24.002 352.315,24.005 352.700 C 24.015 354.077,26.526 355.200,29.594 355.200 C 31.198 355.200,32.400 355.029,32.400 354.800 C 32.400 354.580,32.683 354.400,33.029 354.400 C 33.747 354.400,34.800 353.466,34.800 352.829 C 34.800 352.593,34.980 352.400,35.200 352.400 C 35.420 352.400,35.600 351.961,35.600 351.424 C 35.600 350.887,35.780 350.336,36.000 350.200 C 36.220 350.064,36.400 349.344,36.400 348.600 C 36.400 347.856,36.220 347.136,36.000 347.000 C 35.780 346.864,35.600 346.386,35.600 345.937 C 35.600 343.365,31.100 341.470,26.914 342.280 " stroke="none" fill="#040404" fill-rule="evenodd"></path><path id="path1" d="M231.600 37.252 C 228.072 37.658,224.044 38.295,221.800 38.803 C 216.364 40.033,214.170 40.623,210.585 41.818 C 202.385 44.553,195.234 48.067,188.053 52.890 C 176.873 60.398,166.081 71.524,159.900 81.915 C 157.515 85.924,157.440 85.623,161.102 86.775 C 162.806 87.310,164.470 87.883,164.800 88.046 C 165.130 88.209,167.470 89.316,170.000 90.505 C 185.498 97.787,198.159 110.260,206.225 126.190 L 207.850 129.400 210.625 129.898 C 215.510 130.776,218.787 131.571,221.000 132.416 C 221.440 132.584,222.880 133.135,224.200 133.639 C 244.828 141.523,265.255 173.552,250.885 175.479 C 247.264 175.965,245.470 174.369,243.381 168.800 C 238.439 155.632,227.400 145.828,213.600 142.351 C 211.950 141.935,208.691 141.437,206.358 141.243 C 200.303 140.740,199.767 140.331,197.097 134.180 C 185.445 107.335,154.553 89.995,126.967 94.813 C 120.087 96.015,115.484 97.286,110.867 99.259 C 107.854 100.547,104.760 99.932,103.339 97.763 C 102.626 96.674,102.000 96.505,102.000 97.400 C 102.000 97.730,101.812 98.000,101.583 98.000 C 101.354 98.000,100.949 98.186,100.683 98.413 C 99.998 99.000,95.556 101.600,95.240 101.600 C 95.095 101.600,94.717 101.960,94.400 102.400 C 94.083 102.840,93.593 103.200,93.312 103.200 C 93.030 103.200,92.800 103.367,92.800 103.571 C 92.800 103.775,92.485 104.037,92.100 104.154 C 91.715 104.271,92.030 104.260,92.800 104.129 C 95.528 103.664,107.708 103.548,108.141 103.981 C 108.372 104.212,109.683 104.400,111.056 104.400 C 112.429 104.400,113.664 104.580,113.800 104.800 C 113.936 105.020,114.836 105.200,115.800 105.200 C 116.764 105.200,117.664 105.380,117.800 105.600 C 117.936 105.820,118.566 106.000,119.200 106.000 C 119.834 106.000,120.464 106.180,120.600 106.400 C 120.736 106.620,121.366 106.800,122.000 106.800 C 122.634 106.800,123.264 106.980,123.400 107.200 C 123.536 107.420,123.999 107.600,124.429 107.600 C 124.859 107.600,125.523 107.759,125.905 107.953 C 126.287 108.148,127.050 108.485,127.600 108.703 C 133.292 110.956,141.509 115.484,143.529 117.478 C 143.819 117.765,144.216 118.000,144.410 118.000 C 144.605 118.000,145.177 118.410,145.682 118.912 C 146.187 119.413,147.009 120.108,147.509 120.456 C 149.492 121.834,155.577 128.062,157.600 130.782 C 158.150 131.522,158.825 132.355,159.100 132.635 C 159.375 132.914,159.600 133.321,159.600 133.538 C 159.600 133.755,159.745 133.993,159.923 134.067 C 160.391 134.259,162.800 137.865,162.800 138.372 C 162.800 138.607,162.953 138.800,163.140 138.800 C 163.327 138.800,164.091 140.015,164.838 141.500 C 165.585 142.985,166.332 144.260,166.498 144.333 C 166.664 144.407,166.800 144.688,166.800 144.958 C 166.800 145.403,167.930 148.084,168.755 149.600 C 169.065 150.168,169.842 150.319,176.200 151.045 C 177.300 151.171,178.371 151.437,178.580 151.637 C 178.789 151.837,179.543 152.000,180.256 152.000 C 180.969 152.000,181.664 152.180,181.800 152.400 C 181.936 152.620,182.399 152.800,182.829 152.800 C 183.259 152.800,183.923 152.959,184.305 153.153 C 184.687 153.348,185.450 153.689,186.000 153.911 C 188.635 154.978,193.430 157.429,194.000 158.001 C 194.110 158.111,194.695 158.456,195.300 158.768 C 195.905 159.080,196.400 159.485,196.400 159.668 C 196.400 159.850,196.639 160.000,196.931 160.000 C 198.093 160.000,204.711 166.445,207.198 170.000 C 207.737 170.770,208.498 171.749,208.889 172.175 C 209.280 172.602,209.600 173.187,209.600 173.475 C 209.600 173.764,209.735 174.001,209.900 174.003 C 210.065 174.005,210.401 174.410,210.646 174.903 C 211.512 176.646,213.696 181.009,214.046 181.695 C 214.241 182.077,214.400 182.741,214.400 183.171 C 214.400 183.601,214.580 184.064,214.800 184.200 C 215.020 184.336,215.200 184.876,215.200 185.400 C 215.200 185.924,215.380 186.464,215.600 186.600 C 215.820 186.736,216.000 187.431,216.000 188.144 C 216.000 188.857,216.160 189.611,216.357 189.820 C 216.883 190.382,217.303 194.803,217.303 199.800 C 217.303 204.797,216.883 209.218,216.357 209.780 C 216.160 209.989,216.000 210.743,216.000 211.456 C 216.000 212.169,215.820 212.864,215.600 213.000 C 215.380 213.136,215.200 213.676,215.200 214.200 C 215.200 214.724,215.020 215.264,214.800 215.400 C 214.580 215.536,214.400 216.076,214.400 216.600 C 214.400 217.124,214.220 217.664,214.000 217.800 C 213.780 217.936,213.600 218.397,213.600 218.824 C 213.600 219.251,213.420 219.600,213.200 219.600 C 212.980 219.600,212.800 219.834,212.800 220.120 C 212.800 220.856,211.859 222.793,211.500 222.797 C 211.335 222.799,211.200 223.160,211.200 223.600 C 211.200 224.040,211.020 224.400,210.800 224.400 C 210.580 224.400,210.400 224.640,210.400 224.932 C 210.400 226.424,210.689 226.419,134.200 226.266 C 63.794 226.125,56.710 226.025,56.174 225.158 C 56.052 224.961,55.628 224.800,55.232 224.800 C 54.835 224.800,53.138 224.094,51.461 223.232 C 24.653 209.442,28.784 170.941,57.886 163.361 C 59.070 163.052,60.761 162.800,61.642 162.800 C 67.247 162.800,69.956 160.524,70.449 155.400 C 70.885 150.874,71.667 146.580,72.746 142.800 C 72.966 142.030,73.263 140.950,73.406 140.400 C 73.550 139.850,73.856 138.950,74.087 138.400 C 74.318 137.850,74.641 137.040,74.806 136.600 C 74.970 136.160,75.884 134.180,76.838 132.200 C 80.139 125.348,83.430 120.560,88.400 115.382 C 91.179 112.487,92.400 110.436,92.400 108.662 C 92.400 107.206,90.456 102.843,90.421 104.220 C 90.409 104.671,90.555 105.211,90.745 105.420 C 92.818 107.701,91.965 110.681,88.022 114.931 C 77.693 126.066,71.909 138.467,70.188 153.171 C 69.318 160.608,68.823 161.138,61.800 162.160 C 54.827 163.174,51.528 164.454,46.200 168.215 C 36.822 174.834,30.951 188.807,33.211 199.123 C 33.438 200.155,33.819 201.900,34.058 203.000 C 36.347 213.526,45.718 222.662,58.000 226.341 C 60.993 227.238,206.006 227.363,210.400 226.473 C 227.540 223.002,239.145 212.648,244.484 196.066 C 246.729 189.093,252.112 187.281,255.495 192.359 C 258.618 197.048,251.501 212.862,241.909 222.548 C 239.759 224.719,238.000 226.654,238.000 226.848 C 238.000 227.046,246.103 227.201,256.500 227.201 C 278.266 227.203,277.750 227.091,278.951 232.100 L 279.215 233.200 285.925 233.200 L 292.634 233.200 293.101 231.456 C 293.403 230.324,294.069 229.271,294.997 228.456 L 296.428 227.200 316.134 227.200 C 349.096 227.200,355.111 226.153,366.575 218.417 C 396.349 198.326,393.051 151.568,360.800 136.536 C 354.391 133.549,351.304 132.723,342.478 131.634 C 337.215 130.984,335.953 129.545,335.431 123.600 C 335.108 119.915,334.497 115.565,333.985 113.300 C 332.735 107.775,331.403 102.765,330.822 101.400 C 330.634 100.960,330.264 99.970,330.000 99.200 C 329.736 98.430,329.371 97.440,329.191 97.000 C 329.010 96.560,328.533 95.398,328.131 94.417 C 325.290 87.489,318.925 77.040,314.221 71.583 C 301.480 56.802,287.910 47.453,271.015 41.818 C 267.428 40.622,265.160 40.013,259.800 38.804 C 252.098 37.068,239.319 36.365,231.600 37.252 M251.800 50.460 C 268.722 52.511,285.235 60.516,297.500 72.614 L 301.600 76.658 301.600 78.870 C 301.600 85.052,295.227 87.247,290.800 82.590 C 281.474 72.778,267.171 65.188,253.600 62.847 C 249.488 62.138,244.426 61.600,241.871 61.600 C 236.885 61.600,234.026 58.359,235.193 54.027 C 236.325 49.822,240.011 49.031,251.800 50.460 M312.502 96.021 C 314.291 96.518,315.683 97.918,316.614 100.159 C 316.989 101.062,317.448 102.160,317.635 102.600 C 318.472 104.576,320.365 110.890,320.609 112.524 C 321.841 120.736,311.337 122.831,308.976 114.844 C 307.519 109.917,307.044 108.483,305.945 105.690 C 303.989 100.717,305.119 97.190,309.048 96.014 C 310.616 95.544,310.784 95.545,312.502 96.021 M251.891 185.500 C 251.805 186.325,251.734 185.650,251.734 184.000 C 251.734 182.350,251.805 181.675,251.891 182.500 C 251.978 183.325,251.978 184.675,251.891 185.500 M152.779 238.700 C 168.628 238.783,173.430 238.921,173.673 239.304 C 173.896 239.655,173.990 239.595,173.994 239.100 C 174.000 238.441,172.777 238.406,153.100 238.496 L 132.200 238.593 152.779 238.700 M106.799 263.900 L 81.800 289.000 106.900 264.001 C 130.232 240.763,132.180 238.800,131.899 238.800 C 131.843 238.800,120.548 250.095,106.799 263.900 M92.928 291.100 C 98.829 291.162,108.369 291.162,114.128 291.100 C 119.888 291.037,115.060 290.986,103.400 290.986 C 91.740 290.986,87.028 291.037,92.928 291.100 M129.293 296.800 C 129.293 297.570,129.375 297.885,129.476 297.500 C 129.576 297.115,129.576 296.485,129.476 296.100 C 129.375 295.715,129.293 296.030,129.293 296.800 " stroke="none" fill="#676665" fill-rule="evenodd"></path><path id="path2" d="M107.099 264.301 C 93.294 278.107,82.000 289.627,82.000 289.901 C 82.000 290.293,86.534 290.400,103.204 290.400 C 127.005 290.400,126.941 290.393,128.792 293.386 C 131.665 298.035,133.383 295.920,97.668 331.693 C 65.449 363.964,62.545 367.166,70.141 362.040 C 71.804 360.918,73.352 360.000,73.582 360.000 C 73.812 360.000,74.000 359.850,74.000 359.668 C 74.000 359.485,74.495 359.080,75.100 358.768 C 75.705 358.456,76.290 358.090,76.400 357.955 C 76.510 357.820,80.920 354.855,86.200 351.368 C 91.480 347.881,95.860 344.886,95.933 344.714 C 96.007 344.541,96.288 344.400,96.558 344.400 C 96.828 344.400,97.398 344.085,97.825 343.700 C 98.251 343.315,99.095 342.745,99.700 342.432 C 100.305 342.120,100.800 341.715,100.800 341.532 C 100.800 341.350,101.070 341.200,101.400 341.200 C 101.730 341.200,102.000 341.020,102.000 340.800 C 102.000 340.580,102.270 340.400,102.600 340.400 C 102.930 340.400,103.200 340.220,103.200 340.000 C 103.200 339.780,103.470 339.600,103.800 339.600 C 104.130 339.600,104.400 339.442,104.400 339.249 C 104.400 339.055,104.940 338.673,105.600 338.400 C 106.260 338.127,106.800 337.757,106.800 337.578 C 106.800 337.400,107.159 337.140,107.598 337.001 C 108.036 336.862,108.621 336.532,108.898 336.268 C 109.174 336.004,114.980 332.075,121.800 327.538 C 128.620 323.000,142.279 313.868,152.153 307.244 C 162.027 300.620,170.262 295.200,170.453 295.200 C 170.644 295.200,170.800 295.042,170.800 294.849 C 170.800 294.655,171.340 294.273,172.000 294.000 C 172.660 293.727,173.200 293.375,173.200 293.219 C 173.200 293.063,173.695 292.680,174.300 292.368 C 174.905 292.055,175.749 291.485,176.175 291.100 C 176.602 290.715,177.187 290.400,177.475 290.400 C 177.764 290.400,178.002 290.265,178.005 290.100 C 178.008 289.935,181.328 287.640,185.383 285.000 C 189.438 282.360,192.766 279.975,192.778 279.700 C 192.795 279.306,188.157 279.200,170.860 279.200 C 148.176 279.200,147.458 279.153,145.124 277.529 C 143.030 276.071,142.077 272.086,143.299 269.895 C 143.573 269.403,150.368 262.376,158.399 254.280 C 166.429 246.184,173.075 239.479,173.167 239.380 C 173.258 239.281,164.078 239.200,152.765 239.200 L 132.198 239.200 107.099 264.301 " stroke="none" fill="#f7bf3f" fill-rule="evenodd"></path><path id="path3" d="M100.400 96.800 C 100.400 97.020,100.152 97.200,99.849 97.200 C 99.546 97.200,99.076 97.468,98.804 97.796 C 98.532 98.123,98.150 98.293,97.955 98.172 C 97.760 98.051,97.600 98.143,97.600 98.376 C 97.600 98.609,97.349 98.800,97.043 98.800 C 96.736 98.800,96.372 99.096,96.233 99.457 C 96.095 99.819,95.875 100.009,95.746 99.879 C 95.616 99.749,94.945 100.173,94.255 100.820 C 93.565 101.467,92.841 101.997,92.647 101.998 C 91.183 102.006,90.678 103.787,91.600 105.694 C 93.175 108.954,92.442 111.172,88.400 115.382 C 83.430 120.560,80.139 125.348,76.838 132.200 C 75.884 134.180,74.946 136.205,74.752 136.700 C 74.558 137.195,74.235 138.005,74.033 138.500 C 73.832 138.995,73.550 139.850,73.406 140.400 C 73.263 140.950,72.966 142.030,72.746 142.800 C 71.667 146.580,70.885 150.874,70.449 155.400 C 69.956 160.524,67.247 162.800,61.642 162.800 C 60.761 162.800,59.070 163.052,57.886 163.361 C 28.784 170.941,24.653 209.442,51.461 223.232 C 53.138 224.094,54.835 224.800,55.232 224.800 C 55.628 224.800,56.052 224.961,56.174 225.158 C 56.710 226.025,63.794 226.125,134.200 226.266 C 210.689 226.419,210.400 226.424,210.400 224.932 C 210.400 224.640,210.580 224.400,210.800 224.400 C 211.020 224.400,211.200 224.040,211.200 223.600 C 211.200 223.160,211.335 222.799,211.500 222.797 C 211.859 222.793,212.800 220.856,212.800 220.120 C 212.800 219.834,212.980 219.600,213.200 219.600 C 213.420 219.600,213.600 219.251,213.600 218.824 C 213.600 218.397,213.780 217.936,214.000 217.800 C 214.220 217.664,214.400 217.124,214.400 216.600 C 214.400 216.076,214.580 215.536,214.800 215.400 C 215.020 215.264,215.200 214.724,215.200 214.200 C 215.200 213.676,215.380 213.136,215.600 213.000 C 215.820 212.864,216.000 212.169,216.000 211.456 C 216.000 210.743,216.160 209.989,216.357 209.780 C 217.593 208.461,217.593 191.139,216.357 189.820 C 216.160 189.611,216.000 188.857,216.000 188.144 C 216.000 187.431,215.820 186.736,215.600 186.600 C 215.380 186.464,215.200 185.924,215.200 185.400 C 215.200 184.876,215.020 184.336,214.800 184.200 C 214.580 184.064,214.400 183.601,214.400 183.171 C 214.400 182.741,214.241 182.077,214.046 181.695 C 213.696 181.009,211.512 176.646,210.646 174.903 C 210.401 174.410,210.065 174.005,209.900 174.003 C 209.735 174.001,209.600 173.764,209.600 173.475 C 209.600 173.187,209.280 172.602,208.889 172.175 C 208.498 171.749,207.737 170.770,207.198 170.000 C 204.711 166.445,198.093 160.000,196.931 160.000 C 196.639 160.000,196.400 159.850,196.400 159.668 C 196.400 159.485,195.905 159.080,195.300 158.768 C 194.695 158.456,194.110 158.111,194.000 158.001 C 193.430 157.429,188.635 154.978,186.000 153.911 C 185.450 153.689,184.687 153.348,184.305 153.153 C 183.923 152.959,183.259 152.800,182.829 152.800 C 182.399 152.800,181.936 152.620,181.800 152.400 C 181.664 152.180,180.969 152.000,180.256 152.000 C 179.543 152.000,178.789 151.837,178.580 151.637 C 178.371 151.437,177.300 151.171,176.200 151.045 C 169.842 150.319,169.065 150.168,168.755 149.600 C 167.930 148.084,166.800 145.403,166.800 144.958 C 166.800 144.688,166.664 144.407,166.498 144.333 C 166.332 144.260,165.585 142.985,164.838 141.500 C 164.091 140.015,163.327 138.800,163.140 138.800 C 162.953 138.800,162.800 138.607,162.800 138.372 C 162.800 137.865,160.391 134.259,159.923 134.067 C 159.745 133.993,159.600 133.755,159.600 133.538 C 159.600 133.321,159.375 132.914,159.100 132.635 C 158.825 132.355,158.150 131.522,157.600 130.782 C 155.577 128.062,149.492 121.834,147.509 120.456 C 147.009 120.108,146.187 119.413,145.682 118.912 C 145.177 118.410,144.605 118.000,144.410 118.000 C 144.216 118.000,143.819 117.765,143.529 117.478 C 141.509 115.484,133.292 110.956,127.600 108.703 C 127.050 108.485,126.287 108.148,125.905 107.953 C 125.523 107.759,124.859 107.600,124.429 107.600 C 123.999 107.600,123.536 107.420,123.400 107.200 C 123.264 106.980,122.634 106.800,122.000 106.800 C 121.366 106.800,120.736 106.620,120.600 106.400 C 120.464 106.180,119.834 106.000,119.200 106.000 C 118.566 106.000,117.936 105.820,117.800 105.600 C 117.664 105.380,116.764 105.200,115.800 105.200 C 114.836 105.200,113.936 105.020,113.800 104.800 C 113.664 104.580,112.429 104.400,111.056 104.400 C 109.683 104.400,108.372 104.212,108.141 103.981 C 107.708 103.548,95.528 103.664,92.800 104.129 C 92.030 104.260,91.715 104.271,92.100 104.154 C 92.485 104.037,92.800 103.775,92.800 103.571 C 92.800 103.367,93.030 103.200,93.312 103.200 C 93.593 103.200,94.083 102.840,94.400 102.400 C 94.717 101.960,95.095 101.600,95.240 101.600 C 95.556 101.600,99.998 99.000,100.683 98.413 C 100.949 98.186,101.354 98.000,101.583 98.000 C 101.812 98.000,102.000 97.640,102.000 97.200 C 102.000 96.667,101.733 96.400,101.200 96.400 C 100.760 96.400,100.400 96.580,100.400 96.800 M251.734 184.000 C 251.734 185.650,251.805 186.325,251.891 185.500 C 251.978 184.675,251.978 183.325,251.891 182.500 C 251.805 181.675,251.734 182.350,251.734 184.000 " stroke="none" fill="#a39b9b" fill-rule="evenodd"></path><path id="path4" d="M106.840 264.160 C 88.409 282.592,81.550 289.694,81.729 290.160 C 81.950 290.736,84.083 290.800,102.928 290.800 C 127.593 290.800,127.757 290.828,129.214 295.243 C 130.250 298.381,131.154 297.361,97.359 331.206 C 67.470 361.140,65.105 363.682,66.607 364.258 C 67.200 364.486,73.808 360.475,73.442 360.109 C 73.345 360.011,71.882 360.865,70.192 362.005 C 62.539 367.170,65.401 364.012,97.668 331.693 C 133.383 295.920,131.665 298.035,128.792 293.386 C 126.941 290.393,127.005 290.400,103.204 290.400 C 86.481 290.400,82.000 290.294,82.000 289.899 C 82.000 289.623,93.297 278.101,107.105 264.295 L 132.210 239.193 152.702 239.296 L 173.194 239.400 158.400 254.200 C 150.263 262.340,143.604 269.179,143.603 269.398 C 143.601 269.617,150.350 263.048,158.600 254.800 C 166.850 246.552,173.600 239.578,173.600 239.302 C 173.600 238.906,169.237 238.800,152.899 238.800 L 132.198 238.800 106.840 264.160 M143.067 270.267 C 142.700 270.634,142.729 274.709,143.100 274.937 C 143.265 275.038,143.400 273.968,143.400 272.560 C 143.400 271.152,143.385 270.000,143.367 270.000 C 143.348 270.000,143.213 270.120,143.067 270.267 M143.600 275.884 C 143.600 276.530,145.893 278.187,147.560 278.745 C 148.510 279.063,155.521 279.200,170.860 279.200 C 187.309 279.200,192.800 279.317,192.800 279.667 C 192.800 279.923,192.935 279.999,193.099 279.834 C 194.388 278.545,192.026 278.400,169.750 278.400 C 146.604 278.400,146.357 278.382,144.639 276.529 C 144.068 275.912,143.600 275.622,143.600 275.884 M191.144 281.187 C 190.625 281.619,190.397 281.979,190.638 281.987 C 190.879 281.994,191.402 281.640,191.800 281.200 C 192.726 280.176,192.366 280.169,191.144 281.187 M183.909 285.902 C 180.669 288.046,178.014 289.944,178.009 290.121 C 178.004 290.298,180.262 288.903,183.027 287.021 C 185.791 285.139,188.193 283.600,188.365 283.600 C 188.536 283.600,189.002 283.240,189.400 282.800 C 190.526 281.556,190.187 281.747,183.909 285.902 M176.229 291.009 C 175.805 291.329,175.538 291.671,175.635 291.769 C 175.732 291.866,176.259 291.602,176.806 291.182 C 177.353 290.761,177.620 290.420,177.400 290.422 C 177.180 290.424,176.653 290.688,176.229 291.009 M173.829 292.609 C 173.405 292.929,173.138 293.271,173.235 293.369 C 173.332 293.466,173.859 293.202,174.406 292.782 C 174.953 292.361,175.220 292.020,175.000 292.022 C 174.780 292.024,174.253 292.288,173.829 292.609 M171.700 294.088 C 171.205 294.327,170.800 294.679,170.800 294.870 C 170.800 295.062,171.250 294.924,171.800 294.563 C 173.267 293.602,173.216 293.357,171.700 294.088 M166.800 297.342 C 165.150 298.499,151.561 307.626,136.602 317.623 C 121.643 327.621,109.177 336.013,108.900 336.274 C 108.622 336.534,108.036 336.862,107.598 337.001 C 107.159 337.140,106.800 337.400,106.800 337.578 C 106.800 337.757,106.260 338.127,105.600 338.400 C 104.940 338.673,104.400 339.055,104.400 339.249 C 104.400 339.442,104.130 339.600,103.800 339.600 C 103.470 339.600,103.200 339.780,103.200 340.000 C 103.200 340.220,102.930 340.400,102.600 340.400 C 102.270 340.400,102.000 340.580,102.000 340.800 C 102.000 341.020,101.730 341.200,101.400 341.200 C 101.070 341.200,100.800 341.350,100.800 341.532 C 100.800 341.715,100.305 342.120,99.700 342.432 C 99.095 342.745,98.251 343.315,97.825 343.700 C 97.398 344.085,96.813 344.400,96.525 344.400 C 96.236 344.400,96.000 344.591,96.000 344.824 C 96.000 345.381,94.225 346.527,117.600 330.867 C 174.580 292.693,170.907 295.183,170.180 295.218 C 169.971 295.229,168.450 296.184,166.800 297.342 M89.544 349.187 C 89.025 349.619,88.797 349.979,89.038 349.987 C 89.279 349.994,89.802 349.640,90.200 349.200 C 91.126 348.176,90.766 348.169,89.544 349.187 M82.309 353.902 C 79.069 356.046,76.414 357.940,76.409 358.112 C 76.404 358.284,79.100 356.607,82.400 354.387 C 87.572 350.907,88.801 349.993,88.300 350.002 C 88.245 350.003,85.549 351.758,82.309 353.902 M74.629 359.009 C 74.205 359.329,73.938 359.671,74.035 359.769 C 74.132 359.866,74.659 359.602,75.206 359.182 C 75.753 358.761,76.020 358.420,75.800 358.422 C 75.580 358.424,75.053 358.688,74.629 359.009 " stroke="none" fill="#98814e" fill-rule="evenodd"></path></g></svg>