<svg id="visual" viewBox="0 0 900 600" width="900" height="600" xmlns="http://www.w3.org/2000/svg" xmlns:xlink="http://www.w3.org/1999/xlink" version="1.1"><path d="M0 73L13.7 87C27.3 101 54.7 129 82 148C109.3 167 136.7 177 163.8 193C191 209 218 231 245.2 236C272.3 241 299.7 229 327 208C354.3 187 381.7 157 409 134C436.3 111 463.7 95 491 105C518.3 115 545.7 151 573 178C600.3 205 627.7 223 654.8 230C682 237 709 233 736.2 216C763.3 199 790.7 169 818 173C845.3 177 872.7 215 886.3 234L900 253L900 0L886.3 0C872.7 0 845.3 0 818 0C790.7 0 763.3 0 736.2 0C709 0 682 0 654.8 0C627.7 0 600.3 0 573 0C545.7 0 518.3 0 491 0C463.7 0 436.3 0 409 0C381.7 0 354.3 0 327 0C299.7 0 272.3 0 245.2 0C218 0 191 0 163.8 0C136.7 0 109.3 0 82 0C54.7 0 27.3 0 13.7 0L0 0Z" fill="#0066ff"></path><path d="M0 169L13.7 180C27.3 191 54.7 213 82 231C109.3 249 136.7 263 163.8 273C191 283 218 289 245.2 290C272.3 291 299.7 287 327 278C354.3 269 381.7 255 409 235C436.3 215 463.7 189 491 188C518.3 187 545.7 211 573 239C600.3 267 627.7 299 654.8 316C682 333 709 335 736.2 313C763.3 291 790.7 245 818 241C845.3 237 872.7 275 886.3 294L900 313L900 251L886.3 232C872.7 213 845.3 175 818 171C790.7 167 763.3 197 736.2 214C709 231 682 235 654.8 228C627.7 221 600.3 203 573 176C545.7 149 518.3 113 491 103C463.7 93 436.3 109 409 132C381.7 155 354.3 185 327 206C299.7 227 272.3 239 245.2 234C218 229 191 207 163.8 191C136.7 175 109.3 165 82 146C54.7 127 27.3 99 13.7 85L0 71Z" fill="#0b53e4"></path><path d="M0 271L13.7 277C27.3 283 54.7 295 82 306C109.3 317 136.7 327 163.8 334C191 341 218 345 245.2 351C272.3 357 299.7 365 327 361C354.3 357 381.7 341 409 323C436.3 305 463.7 285 491 282C518.3 279 545.7 293 573 310C600.3 327 627.7 347 654.8 365C682 383 709 399 736.2 380C763.3 361 790.7 307 818 296C845.3 285 872.7 317 886.3 333L900 349L900 311L886.3 292C872.7 273 845.3 235 818 239C790.7 243 763.3 289 736.2 311C709 333 682 331 654.8 314C627.7 297 600.3 265 573 237C545.7 209 518.3 185 491 186C463.7 187 436.3 213 409 233C381.7 253 354.3 267 327 276C299.7 285 272.3 289 245.2 288C218 287 191 281 163.8 271C136.7 261 109.3 247 82 229C54.7 211 27.3 189 13.7 178L0 167Z" fill="#0c40ca"></path><path d="M0 499L13.7 501C27.3 503 54.7 507 82 505C109.3 503 136.7 495 163.8 494C191 493 218 499 245.2 501C272.3 503 299.7 501 327 493C354.3 485 381.7 471 409 464C436.3 457 463.7 457 491 453C518.3 449 545.7 441 573 441C600.3 441 627.7 449 654.8 468C682 487 709 517 736.2 522C763.3 527 790.7 507 818 505C845.3 503 872.7 519 886.3 527L900 535L900 347L886.3 331C872.7 315 845.3 283 818 294C790.7 305 763.3 359 736.2 378C709 397 682 381 654.8 363C627.7 345 600.3 325 573 308C545.7 291 518.3 277 491 280C463.7 283 436.3 303 409 321C381.7 339 354.3 355 327 359C299.7 363 272.3 355 245.2 349C218 343 191 339 163.8 332C136.7 325 109.3 315 82 304C54.7 293 27.3 281 13.7 275L0 269Z" fill="#082eb1"></path><path d="M0 601L13.7 601C27.3 601 54.7 601 82 601C109.3 601 136.7 601 163.8 601C191 601 218 601 245.2 601C272.3 601 299.7 601 327 601C354.3 601 381.7 601 409 601C436.3 601 463.7 601 491 601C518.3 601 545.7 601 573 601C600.3 601 627.7 601 654.8 601C682 601 709 601 736.2 601C763.3 601 790.7 601 818 601C845.3 601 872.7 601 886.3 601L900 601L900 533L886.3 525C872.7 517 845.3 501 818 503C790.7 505 763.3 525 736.2 520C709 515 682 485 654.8 466C627.7 447 600.3 439 573 439C545.7 439 518.3 447 491 451C463.7 455 436.3 455 409 462C381.7 469 354.3 483 327 491C299.7 499 272.3 501 245.2 499C218 497 191 491 163.8 492C136.7 493 109.3 501 82 503C54.7 505 27.3 501 13.7 499L0 497Z" fill="#001b98"></path></svg>